<?xml version="1.0" encoding="UTF-8" standalone="no"?><!DOCTYPE svg PUBLIC "-//W3C//DTD SVG 1.1//EN" "http://www.w3.org/Graphics/SVG/1.1/DTD/svg11.dtd"><svg width="100%" height="100%" viewBox="0 0 1389 868" version="1.1" xmlns="http://www.w3.org/2000/svg" xmlns:xlink="http://www.w3.org/1999/xlink" xml:space="preserve" xmlns:serif="http://www.serif.com/" style="fill-rule:evenodd;clip-rule:evenodd;stroke-linejoin:round;stroke-miterlimit:2;"><rect id="Logo-1" serif:id="Logo 1" x="0.944" y="0" width="1387.24" height="867.882" style="fill:none;"/><g><g><g><path d="M335.751,545.759c0,39.17 -20.543,58.756 -61.63,58.756l-100.268,0l0,-205.646l95.159,0c39.17,0 58.756,18.095 58.756,54.286c0,11.07 -2.236,20.383 -6.706,27.941c-4.471,7.557 -10.857,13.358 -19.16,17.403c22.566,5.535 33.849,21.288 33.849,47.26Zm-32.571,-90.688c0,-12.561 -2.927,-21.715 -8.782,-27.462c-5.854,-5.748 -16.445,-8.622 -31.773,-8.622l-62.587,0l0,69.932l67.377,0c23.843,0 35.765,-11.283 35.765,-33.848Zm-33.529,129.646c13.837,0 23.949,-3.087 30.335,-9.261c6.387,-6.174 9.58,-16.392 9.58,-30.655c0,-12.347 -3.3,-21.448 -9.899,-27.302c-6.599,-5.855 -17.989,-8.782 -34.168,-8.782l-65.461,0l0,76l69.613,0Z" style="fill:#fff;fill-rule:nonzero;"/><path d="M370.877,417.709l0,-23.949l29.058,0l0,23.949l-29.058,0Zm28.739,186.806l-26.185,0l0,-130.604l-23.311,0l2.555,-20.756l46.941,0l0,151.36Z" style="fill:#fff;fill-rule:nonzero;"/><path d="M448.473,540.969c0.851,11.709 3.353,20.809 7.504,27.302c4.151,6.493 10.378,11.177 18.68,14.051c8.303,2.874 19.479,4.31 33.529,4.31c15.541,0 29.804,-2.661 42.79,-7.983l0,20.437c-12.986,5.748 -28.952,8.622 -47.899,8.622c-27.036,0 -47.26,-6.493 -60.672,-19.479c-13.411,-12.986 -20.117,-32.997 -20.117,-60.033c0,-24.907 5.961,-44.173 17.882,-57.798c11.922,-13.624 30.123,-20.437 54.605,-20.437c21.501,0 37.84,5.748 49.016,17.244c11.177,11.496 16.765,26.61 16.765,45.344l0,28.42l-112.083,0Zm46.94,-69.932c-17.456,0 -29.644,4.098 -36.562,12.294c-6.919,8.196 -10.378,21.128 -10.378,38.798l88.772,0l0,-12.454c0,-12.56 -3.353,-22.14 -10.059,-28.739c-6.706,-6.6 -17.297,-9.899 -31.773,-9.899Z" style="fill:#fff;fill-rule:nonzero;"/><path d="M721.815,505.524l-26.185,67.7l0,-66.742c0,-9.154 -1.171,-16.232 -3.512,-21.235c-2.342,-5.003 -6.227,-8.622 -11.656,-10.857c-5.428,-2.236 -13.252,-3.353 -23.47,-3.353c-9.367,0 -18.202,1.703 -26.504,5.109c-8.303,3.406 -15.434,8.09 -21.395,14.05l0,114.319l-26.184,0l0,-151.36l23.63,0l1.596,17.243c16.605,-13.624 36.19,-20.437 58.756,-20.437c19.16,0 33.103,4.471 41.832,13.412c8.728,8.941 13.092,22.991 13.092,42.151Z" style="fill:#fff;fill-rule:nonzero;"/></g><g><path d="M776.973,398.315l63.546,0l78.873,205.645l-62.587,0l-17.244,-43.747l-61.949,0l-16.924,43.747l-62.588,0l78.873,-205.645Zm54.605,118.789l-22.991,-60.353l-22.992,60.353l45.983,0Z" style="fill:#fff;fill-rule:nonzero;"/><path d="M1013.27,607.153c-28.101,0 -49.974,-6.652 -65.621,-19.957c-15.647,-13.306 -23.471,-32.944 -23.471,-58.916c0,-25.972 7.983,-45.61 23.95,-58.915c15.966,-13.306 37.786,-19.958 65.461,-19.958c11.496,0 21.661,0.798 30.496,2.395c8.835,1.596 17.297,4.311 25.386,8.142l0,42.151c-12.56,-5.96 -26.823,-8.941 -42.789,-8.941c-14.051,0 -24.429,2.661 -31.135,7.983c-6.705,5.322 -10.058,14.37 -10.058,27.143c0,12.347 3.299,21.288 9.899,26.823c6.599,5.535 17.03,8.303 31.294,8.303c15.114,0 29.484,-3.513 43.109,-10.538l0,44.067c-15.115,6.812 -33.955,10.218 -56.521,10.218Z" style="fill:#fff;fill-rule:nonzero;"/><path d="M1128.23,607.153c-15.54,0 -28.367,-4.098 -38.479,-12.294c-10.112,-8.196 -15.168,-20.277 -15.168,-36.243c0,-16.179 5.376,-28.633 16.126,-37.361c10.751,-8.728 26.77,-13.092 48.059,-13.092l39.277,0l0,-2.874c0,-5.961 -2.502,-10.325 -7.504,-13.093c-5.003,-2.767 -13.572,-4.151 -25.706,-4.151c-17.456,0 -34.7,2.661 -51.731,7.983l0,-36.084c7.877,-3.193 17.563,-5.747 29.059,-7.663c11.496,-1.916 23.098,-2.874 34.806,-2.874c24.695,0 43.908,5.056 57.638,15.168c13.731,10.112 20.597,25.492 20.597,46.142l0,93.243l-52.369,0l-2.874,-12.134c-11.496,10.218 -28.74,15.327 -51.731,15.327Zm20.437,-35.125c12.134,0 21.927,-4.045 29.378,-12.135l0,-18.84l-29.059,0c-6.812,0 -11.815,1.277 -15.008,3.832c-3.193,2.555 -4.79,6.493 -4.79,11.815c0,10.218 6.493,15.328 19.479,15.328Z" style="fill:#fff;fill-rule:nonzero;"/></g><path d="M1136.28,374.348c1.467,-1.467 3.846,-1.467 5.313,0c4.679,4.679 13.899,13.899 13.899,13.899c0,0 28.127,-28.127 37.012,-37.013c0.705,-0.704 1.661,-1.1 2.657,-1.1c0.996,0 1.952,0.396 2.657,1.1c3.226,3.226 8.635,8.635 11.861,11.861c1.467,1.468 1.467,3.847 0,5.314c-9.37,9.37 -40.813,40.812 -50.182,50.182c-1.467,1.467 -3.846,1.467 -5.314,0c-6.304,-6.305 -22.111,-22.112 -28.416,-28.416c-1.467,-1.468 -1.467,-3.847 0,-5.314c2.922,-2.922 7.591,-7.59 10.513,-10.513Z" style="fill:#fff;"/></g><path d="M681.567,185.109c3.851,0.041 7.68,1.058 11.031,2.953c21.431,12.118 42.709,24.508 63.966,36.93c6.656,3.97 11.043,11.401 11.207,19.249l0.002,0.184c0.127,24.61 0.127,49.22 0,73.83c-0.002,0.194 -0.007,0.388 -0.013,0.581c-0.277,7.577 -4.516,14.821 -11.043,18.761l-0.153,0.091c-21.258,12.422 -42.589,24.716 -63.966,36.931c-6.862,3.839 -15.52,3.867 -22.43,0c-21.376,-12.215 -42.708,-24.509 -63.965,-36.931c-6.744,-4.021 -11.128,-11.6 -11.209,-19.433c-0.128,-24.61 -0.128,-49.22 0,-73.83c0.081,-7.821 4.411,-15.38 11.209,-19.433c21.257,-12.422 42.534,-24.812 63.965,-36.93c3.456,-1.955 7.444,-2.974 11.399,-2.953Zm-0.2,20.833c-0.322,0.003 -0.634,0.087 -0.918,0.239c-21.318,12.055 -42.42,24.491 -63.63,36.736c-0.588,0.34 -0.971,0.976 -0.992,1.652c-0.255,24.49 -0.001,48.983 -0.001,73.474c0,0.676 0.356,1.329 0.918,1.675c20.974,12.661 42.433,24.5 63.649,36.749c0.571,0.33 1.3,0.355 1.902,0.044c21.518,-11.714 42.435,-24.499 63.652,-36.748c0.575,-0.333 0.971,-0.96 0.993,-1.651c0.255,-24.49 0,-48.983 0,-73.475c0,-0.684 -0.351,-1.326 -0.918,-1.675c-20.967,-12.657 -42.419,-24.492 -63.629,-36.738c-0.293,-0.169 -0.613,-0.269 -0.946,-0.281c-0.027,-0.001 -0.053,-0.001 -0.08,-0.001Z" style="fill:#ffd000;stroke:#ffd000;stroke-width:1px;"/><path d="M683.317,262.663l13.309,7.683l13.064,-7.517c-0.115,-0.492 -0.185,-0.995 -0.185,-1.504c0,-2.385 1.282,-4.603 3.348,-5.791c3.192,-1.832 7.283,-0.732 9.117,2.458c0.583,1.011 0.892,2.162 0.892,3.325c0,2.384 -1.284,4.604 -3.348,5.792c-1.547,0.89 -3.348,1.124 -5.071,0.66c-1.075,-0.289 -2.021,-0.855 -2.809,-1.6l-13.107,7.541l0,15.409l13.003,7.599c0.796,-0.739 1.746,-1.299 2.827,-1.582c1.725,-0.455 3.524,-0.207 5.059,0.692c2.041,1.189 3.309,3.399 3.309,5.768c0,1.18 -0.314,2.343 -0.913,3.365c-1.855,3.174 -5.949,4.251 -9.133,2.398c-2.042,-1.198 -3.309,-3.409 -3.309,-5.773c0,-0.523 0.073,-1.038 0.194,-1.543l-13.062,-7.633l-13.187,7.611l0,15.109c2.737,0.835 4.744,3.352 4.744,6.358c0,3.682 -2.992,6.677 -6.676,6.677c-3.683,0 -6.676,-2.995 -6.678,-6.681c0,-3.006 2.009,-5.523 4.747,-6.358l0,-15.109l-13.312,-7.683l-13.064,7.517c0.115,0.492 0.185,0.995 0.185,1.505c0,2.382 -1.282,4.602 -3.348,5.79c-3.192,1.834 -7.283,0.732 -9.117,-2.458c-0.583,-1.011 -0.892,-2.162 -0.892,-3.325c0,-2.384 1.284,-4.604 3.35,-5.792c1.545,-0.892 3.346,-1.126 5.069,-0.66c1.075,0.289 2.021,0.855 2.811,1.6l13.105,-7.541l0,-15.413l-13.003,-7.595c-0.796,0.74 -1.746,1.299 -2.825,1.582c-1.725,0.455 -3.522,0.207 -5.061,-0.692c-2.043,-1.188 -3.311,-3.401 -3.311,-5.769c0,-1.179 0.314,-2.342 0.913,-3.364c1.857,-3.174 5.955,-4.251 9.135,-2.398c2.042,1.194 3.309,3.405 3.309,5.769c0,0.525 -0.073,1.042 -0.195,1.55l13.066,7.63l13.187,-7.611l0,-15.109c-2.74,-0.835 -4.747,-3.352 -4.747,-6.358c0,-3.682 2.993,-6.676 6.676,-6.676c3.684,0 6.676,2.994 6.678,6.676c0,3.006 -2.009,5.523 -4.744,6.358l0,15.113Z" style="fill:#fff;"/><path d="M1237.42,690.333c0,-4.513 -1.793,-8.841 -4.984,-12.032c-3.191,-3.191 -7.519,-4.984 -12.032,-4.984c-81.936,0 -435.218,0 -517.154,0c-4.513,0 -8.841,1.793 -12.032,4.984c-3.191,3.191 -4.984,7.519 -4.984,12.032c0,0.001 0,0.001 0,0.002c0,4.513 1.793,8.841 4.984,12.032c3.191,3.191 7.519,4.984 12.032,4.984c81.936,0 435.218,0 517.154,0c4.513,0 8.841,-1.793 12.032,-4.984c3.191,-3.191 4.984,-7.519 4.984,-12.032c0,-0.001 0,-0.001 0,-0.002Z" style="fill:#ffd000;"/><text x="177.781px" y="703.253px" style="font-family:'RobotoSlab-Bold', 'Roboto Slab';font-weight:700;font-size:54.415px;fill:#fff;">Actuar h<tspan x="400.25px 430.353px " y="703.253px 703.253px ">oy</tspan> y bien.</text></g></svg>