<?xml version="1.0" encoding="UTF-8" standalone="no"?><!DOCTYPE svg PUBLIC "-//W3C//DTD SVG 1.1//EN" "http://www.w3.org/Graphics/SVG/1.1/DTD/svg11.dtd"><svg width="100%" height="100%" viewBox="0 0 1388 868" version="1.1" xmlns="http://www.w3.org/2000/svg" xmlns:xlink="http://www.w3.org/1999/xlink" xml:space="preserve" xmlns:serif="http://www.serif.com/" style="fill-rule:evenodd;clip-rule:evenodd;stroke-linejoin:round;stroke-miterlimit:2;"><rect id="Logo-2" serif:id="Logo 2" x="0.285" y="0" width="1387.24" height="867.882" style="fill:none;"/><g><g><g><path d="M517.546,476.836c0,26.791 -14.051,40.186 -42.152,40.186l-68.579,0l0,-140.652l65.084,0c26.791,0 40.187,12.376 40.187,37.129c0,7.571 -1.529,13.941 -4.587,19.11c-3.057,5.169 -7.426,9.137 -13.104,11.903c15.434,3.786 23.151,14.56 23.151,32.324Zm-22.277,-62.027c0,-8.59 -2.002,-14.851 -6.006,-18.783c-4.005,-3.931 -11.248,-5.896 -21.732,-5.896l-42.807,0l0,47.83l46.083,0c16.308,0 24.462,-7.717 24.462,-23.151Zm-22.933,88.672c9.464,0 16.38,-2.111 20.749,-6.334c4.368,-4.222 6.552,-11.211 6.552,-20.966c0,-8.445 -2.257,-14.67 -6.771,-18.674c-4.514,-4.004 -12.303,-6.006 -23.369,-6.006l-44.773,0l0,51.98l47.612,0Z" style="fill:#fff;fill-rule:nonzero;"/><path d="M541.57,389.256l0,-16.38l19.875,0l0,16.38l-19.875,0Zm19.657,127.766l-17.91,0l0,-89.327l-15.943,0l1.747,-14.196l32.106,0l0,103.523Z" style="fill:#fff;fill-rule:nonzero;"/><path d="M594.642,473.56c0.583,8.008 2.294,14.232 5.133,18.673c2.839,4.441 7.098,7.644 12.776,9.61c5.679,1.966 13.323,2.948 22.933,2.948c10.629,0 20.384,-1.82 29.266,-5.46l0,13.978c-8.882,3.931 -19.802,5.897 -32.761,5.897c-18.491,0 -32.323,-4.441 -41.496,-13.322c-9.173,-8.882 -13.76,-22.569 -13.76,-41.06c0,-17.036 4.077,-30.213 12.231,-39.531c8.154,-9.319 20.603,-13.978 37.347,-13.978c14.706,0 25.881,3.931 33.525,11.794c7.644,7.862 11.466,18.2 11.466,31.013l0,19.438l-76.66,0Zm32.106,-47.831c-11.94,0 -20.276,2.803 -25.008,8.409c-4.732,5.606 -7.098,14.451 -7.098,26.536l60.717,0l0,-8.518c0,-8.59 -2.294,-15.142 -6.88,-19.656c-4.587,-4.514 -11.83,-6.771 -21.731,-6.771Z" style="fill:#fff;fill-rule:nonzero;"/><path d="M781.596,449.317l-17.909,46.304l0,-45.649c0,-6.261 -0.801,-11.102 -2.403,-14.524c-1.601,-3.421 -4.259,-5.897 -7.971,-7.425c-3.713,-1.529 -9.064,-2.294 -16.053,-2.294c-6.407,0 -12.449,1.165 -18.128,3.495c-5.678,2.329 -10.556,5.533 -14.633,9.61l0,78.188l-17.909,0l0,-103.523l16.162,0l1.092,11.794c11.357,-9.319 24.753,-13.978 40.186,-13.978c13.105,0 22.642,3.057 28.611,9.173c5.97,6.115 8.955,15.725 8.955,28.829Z" style="fill:#fff;fill-rule:nonzero;"/></g><g><path d="M819.322,375.991l43.462,0l53.946,140.652l-42.807,0l-11.794,-29.922l-42.371,0l-11.575,29.922l-42.807,0l53.946,-140.652Zm37.347,81.246l-15.725,-41.278l-15.725,41.278l31.45,0Z" style="fill:#fff;fill-rule:nonzero;"/><path d="M980.94,518.827c-19.219,0 -34.18,-4.55 -44.882,-13.65c-10.701,-9.101 -16.052,-22.532 -16.052,-40.296c0,-17.763 5.46,-31.195 16.38,-40.295c10.92,-9.101 25.844,-13.651 44.773,-13.651c7.862,0 14.815,0.546 20.857,1.638c6.043,1.092 11.831,2.949 17.363,5.57l0,28.829c-8.59,-4.077 -18.346,-6.115 -29.266,-6.115c-9.609,0 -16.708,1.82 -21.294,5.46c-4.587,3.64 -6.88,9.828 -6.88,18.564c0,8.445 2.257,14.56 6.771,18.346c4.513,3.786 11.648,5.678 21.403,5.678c10.338,0 20.166,-2.402 29.485,-7.207l0,30.14c-10.338,4.659 -23.224,6.989 -38.658,6.989Z" style="fill:#fff;fill-rule:nonzero;"/><path d="M1059.57,518.827c-10.629,0 -19.402,-2.803 -26.318,-8.409c-6.916,-5.605 -10.374,-13.868 -10.374,-24.789c0,-11.065 3.676,-19.583 11.029,-25.553c7.353,-5.969 18.31,-8.954 32.87,-8.954l26.864,0l0,-1.966c0,-4.077 -1.711,-7.062 -5.133,-8.955c-3.421,-1.892 -9.282,-2.839 -17.581,-2.839c-11.94,0 -23.734,1.82 -35.382,5.46l0,-24.679c5.388,-2.184 12.012,-3.932 19.875,-5.242c7.863,-1.31 15.798,-1.966 23.806,-1.966c16.89,0 30.031,3.458 39.422,10.375c9.391,6.916 14.087,17.435 14.087,31.559l0,63.774l-35.818,0l-1.966,-8.3c-7.862,6.989 -19.656,10.484 -35.381,10.484Zm13.978,-24.025c8.299,0 14.997,-2.766 20.093,-8.299l0,-12.886l-19.875,0c-4.659,0 -8.081,0.874 -10.265,2.621c-2.184,1.747 -3.276,4.441 -3.276,8.081c0,6.989 4.441,10.483 13.323,10.483Z" style="fill:#fff;fill-rule:nonzero;"/></g><path d="M1064.23,360.439c1.467,-1.468 3.846,-1.468 5.314,0c3.346,3.346 8.666,8.666 8.666,8.666c0,0 17.644,-17.644 24.475,-24.475c0.705,-0.705 1.66,-1.101 2.657,-1.101c0.996,0 1.952,0.396 2.656,1.101c1.923,1.922 4.511,4.51 6.434,6.433c0.704,0.704 1.1,1.66 1.1,2.657c0,0.996 -0.396,1.952 -1.1,2.656c-6.963,6.963 -25.681,25.681 -32.643,32.643c-0.705,0.705 -1.661,1.101 -2.657,1.101c-0.996,0 -1.952,-0.396 -2.657,-1.101c-4.439,-4.44 -13.316,-13.316 -17.756,-17.756c-0.704,-0.705 -1.1,-1.66 -1.1,-2.657c0,-0.996 0.396,-1.952 1.1,-2.656c1.677,-1.677 3.835,-3.835 5.511,-5.511Z" style="fill:#fff;"/></g><g><path d="M269.231,349.753c3.85,0.042 7.68,1.058 11.031,2.953c21.431,12.119 42.708,24.509 63.965,36.93c6.657,3.97 11.044,11.402 11.207,19.249l0.002,0.185c0.128,24.609 0.128,49.22 0,73.829c-0.002,0.194 -0.006,0.388 -0.012,0.582c-0.278,7.577 -4.516,14.82 -11.044,18.761l-0.153,0.091c-21.257,12.421 -42.589,24.715 -63.965,36.931c-6.862,3.839 -15.52,3.866 -22.43,0c-21.377,-12.216 -42.709,-24.51 -63.966,-36.931c-6.743,-4.022 -11.127,-11.601 -11.209,-19.434c-0.127,-24.609 -0.127,-49.22 0,-73.829c0.082,-7.821 4.412,-15.38 11.209,-19.434c21.257,-12.421 42.534,-24.811 63.966,-36.93c3.455,-1.954 7.444,-2.974 11.399,-2.953Zm-0.2,20.833c-0.322,0.004 -0.635,0.087 -0.918,0.24c-21.319,12.055 -42.42,24.49 -63.63,36.736c-0.588,0.339 -0.972,0.976 -0.993,1.651c-0.255,24.49 0,48.983 0,73.474c0,0.676 0.355,1.329 0.918,1.675c20.973,12.661 42.432,24.5 63.649,36.75c0.571,0.329 1.3,0.355 1.902,0.043c21.517,-11.714 42.435,-24.498 63.652,-36.748c0.575,-0.332 0.971,-0.96 0.992,-1.651c0.255,-24.49 0.001,-48.983 0.001,-73.475c0,-0.684 -0.352,-1.326 -0.918,-1.675c-20.967,-12.657 -42.419,-24.492 -63.629,-36.737c-0.293,-0.169 -0.614,-0.269 -0.946,-0.282c-0.027,-0.001 -0.054,-0.001 -0.08,-0.001Z" style="fill:#ffd000;stroke:#ffd000;stroke-width:1px;"/><path d="M270.98,427.307l13.31,7.683l13.064,-7.517c-0.115,-0.491 -0.185,-0.995 -0.185,-1.504c0,-2.384 1.281,-4.603 3.348,-5.791c3.191,-1.832 7.283,-0.731 9.117,2.459c0.583,1.01 0.891,2.161 0.891,3.324c0,2.384 -1.283,4.605 -3.348,5.793c-1.547,0.889 -3.348,1.124 -5.07,0.659c-1.075,-0.289 -2.022,-0.854 -2.81,-1.6l-13.107,7.541l0,15.409l13.004,7.599c0.796,-0.739 1.746,-1.299 2.827,-1.582c1.725,-0.454 3.523,-0.207 5.059,0.693c2.041,1.188 3.309,3.398 3.309,5.767c0,1.18 -0.314,2.343 -0.913,3.365c-1.856,3.175 -5.949,4.252 -9.133,2.398c-2.043,-1.198 -3.309,-3.408 -3.309,-5.773c0,-0.523 0.072,-1.038 0.193,-1.543l-13.062,-7.632l-13.187,7.61l0,15.109c2.738,0.835 4.745,3.352 4.745,6.359c0,3.681 -2.993,6.676 -6.676,6.676c-3.684,0 -6.677,-2.995 -6.679,-6.68c0,-3.007 2.01,-5.524 4.747,-6.359l0,-15.108l-13.312,-7.684l-13.064,7.518c0.115,0.491 0.186,0.995 0.186,1.504c0,2.382 -1.282,4.602 -3.348,5.791c-3.192,1.834 -7.283,0.731 -9.117,-2.459c-0.584,-1.01 -0.892,-2.161 -0.892,-3.324c0,-2.384 1.284,-4.605 3.35,-5.793c1.545,-0.891 3.346,-1.126 5.069,-0.659c1.075,0.289 2.021,0.854 2.811,1.6l13.105,-7.541l0,-15.413l-13.004,-7.595c-0.796,0.739 -1.746,1.299 -2.825,1.582c-1.724,0.454 -3.521,0.207 -5.061,-0.693c-2.042,-1.188 -3.31,-3.4 -3.31,-5.769c0,-1.178 0.314,-2.341 0.913,-3.364c1.857,-3.174 5.954,-4.251 9.134,-2.397c2.043,1.194 3.309,3.404 3.309,5.769c0,0.525 -0.072,1.042 -0.195,1.549l13.066,7.63l13.187,-7.611l0,-15.108c-2.739,-0.835 -4.747,-3.352 -4.747,-6.359c0,-3.681 2.993,-6.676 6.677,-6.676c3.683,0 6.676,2.995 6.678,6.676c0,3.007 -2.01,5.524 -4.745,6.359l0,15.112Z" style="fill:#fff;"/></g></g></svg>